<svg width="58" height="58" viewBox="0 0 58 58" fill="none" xmlns="http://www.w3.org/2000/svg">
<rect x="0.5" y="0.5" width="57" height="57" rx="28.5" fill="#E9F1FF"/>
<mask id="mask0_4324_7139" style="mask-type:alpha" maskUnits="userSpaceOnUse" x="12" y="12" width="34" height="34">
<rect x="12" y="12" width="34" height="34" fill="#D9D9D9"/>
</mask>
<g mask="url(#mask0_4324_7139)">
<path d="M28.9995 38.5624C28.6983 38.5624 28.446 38.4606 28.2426 38.257C28.0392 38.0533 27.9375 37.801 27.9375 37.5V30.0624H20.5C20.1989 30.0624 19.9466 29.9606 19.743 29.7569C19.5393 29.5531 19.4375 29.3007 19.4375 28.9995C19.4375 28.6983 19.5393 28.446 19.743 28.2426C19.9466 28.0392 20.1989 27.9375 20.5 27.9375H27.9375V20.5C27.9375 20.1989 28.0394 19.9466 28.2431 19.7429C28.4468 19.5393 28.6993 19.4375 29.0004 19.4375C29.3016 19.4375 29.5539 19.5393 29.7573 19.7429C29.9607 19.9466 30.0624 20.1989 30.0624 20.5V27.9375H37.5C37.801 27.9375 38.0534 28.0394 38.257 28.2431C38.4606 28.4468 38.5624 28.6993 38.5624 29.0004C38.5624 29.3016 38.4606 29.5539 38.257 29.7573C38.0534 29.9607 37.801 30.0624 37.5 30.0624H30.0624V37.5C30.0624 37.801 29.9606 38.0533 29.7569 38.257C29.5531 38.4606 29.3007 38.5624 28.9995 38.5624Z" fill="#2180FF"/>
</g>
<rect x="0.5" y="0.5" width="57" height="57" rx="28.5" stroke="#2180FF"/>
</svg>
