<svg width="18" height="18" viewBox="0 0 18 18" fill="none" xmlns="http://www.w3.org/2000/svg">
<path d="M6.5216 12.6155C4.81392 12.6155 3.36777 12.0232 2.18317 10.8386C0.998558 9.65395 0.40625 8.2078 0.40625 6.50012C0.40625 4.79243 0.998558 3.34628 2.18317 2.16167C3.36777 0.977065 4.81392 0.384766 6.5216 0.384766C8.22928 0.384766 9.67543 0.977065 10.8601 2.16167C12.0447 3.34628 12.637 4.79243 12.637 6.50012C12.637 7.21422 12.5171 7.89627 12.2774 8.54627C12.0376 9.19627 11.7177 9.76165 11.3177 10.2424L17.0716 15.9963C17.2101 16.1347 17.2809 16.3088 17.2841 16.5184C17.2873 16.728 17.2165 16.9052 17.0716 17.0501C16.9267 17.195 16.7511 17.2674 16.5447 17.2674C16.3383 17.2674 16.1626 17.195 16.0178 17.0501L10.2639 11.2962C9.7639 11.7091 9.1889 12.0321 8.5389 12.2655C7.8889 12.4988 7.21647 12.6155 6.5216 12.6155ZM6.5216 11.1155C7.81007 11.1155 8.90142 10.6684 9.79565 9.77417C10.6899 8.87993 11.137 7.78858 11.137 6.50012C11.137 5.21165 10.6899 4.1203 9.79565 3.22607C8.90142 2.33183 7.81007 1.88472 6.5216 1.88472C5.23313 1.88472 4.14178 2.33183 3.24755 3.22607C2.35333 4.1203 1.90623 5.21165 1.90623 6.50012C1.90623 7.78858 2.35333 8.87993 3.24755 9.77417C4.14178 10.6684 5.23313 11.1155 6.5216 11.1155Z" fill="#686A6D"/>
</svg>
