<svg width="12" height="7" viewBox="0 0 12 7" fill="none" xmlns="http://www.w3.org/2000/svg">
<path d="M5.99618 4.91523L10.0693 0.857531C10.2077 0.719081 10.3792 0.645689 10.5837 0.637356C10.7882 0.629023 10.968 0.702415 11.1231 0.857531C11.268 1.0024 11.3404 1.17804 11.3404 1.38446C11.3404 1.59086 11.268 1.76649 11.1231 1.91136L7.075 5.95946C6.78142 6.25304 6.42181 6.39983 5.99618 6.39983C5.57054 6.39983 5.21093 6.25304 4.91735 5.95946L0.869275 1.91136C0.730808 1.77291 0.657408 1.60144 0.649075 1.39696C0.640741 1.19247 0.714142 1.01266 0.869275 0.857531C1.01414 0.712665 1.18977 0.640232 1.39617 0.640232C1.60257 0.640232 1.77821 0.712665 1.92307 0.857531L5.99618 4.91523Z" fill="#686A6D"/>
</svg>
